<svg width="60" height="61" viewBox="0 0 60 61" fill="none" xmlns="http://www.w3.org/2000/svg">
<path d="M30.3216 35.6902C27.5616 35.6902 25.1696 33.4121 25.1696 30.3747C25.1696 27.527 27.3776 25.0591 30.3216 25.0591C33.0815 25.0591 35.4735 27.3372 35.4735 30.3747C35.4735 33.2223 33.0815 35.6902 30.3216 35.6902Z" fill="white"/>
<path fill-rule="evenodd" clip-rule="evenodd" d="M36.5775 17.4654H24.0656C22.5936 17.6553 21.8576 17.8451 21.3056 18.0349C20.5696 18.2248 20.0176 18.6045 19.4656 19.174C19.0288 19.6247 18.8224 20.0753 18.573 20.62C18.5072 20.7636 18.4383 20.9141 18.3616 21.0724C18.3331 21.1605 18.3002 21.2532 18.265 21.3525C18.0725 21.8951 17.8096 22.6363 17.8096 23.92V36.8293C17.9936 38.348 18.1776 39.1074 18.3616 39.6769C18.5456 40.4363 18.9136 41.0058 19.4656 41.5753C19.9024 42.026 20.3392 42.2389 20.8671 42.4963C20.926 42.525 20.986 42.5542 21.0473 42.5844C21.2199 42.6695 21.3969 42.746 21.577 42.814V42.814C22.1029 43.0126 22.8213 43.2839 24.0656 43.2839H36.5775C38.0495 43.094 38.7855 42.9042 39.3375 42.7144C40.0735 42.5245 40.6255 42.1448 41.1775 41.5753C41.6143 41.1247 41.8207 40.674 42.0701 40.1293C42.1359 39.9856 42.2047 39.8353 42.2815 39.6769C42.31 39.5888 42.3429 39.4961 42.3781 39.3968C42.5706 38.8542 42.8335 38.1131 42.8335 36.8293V23.92C42.6495 22.4013 42.4655 21.6419 42.2815 21.0724C42.0975 20.3131 41.7295 19.7435 41.1775 19.174C40.7407 18.7233 40.304 18.5104 39.776 18.2531C39.7172 18.2244 39.6572 18.1951 39.5958 18.1649C39.4232 18.0798 39.2462 18.0033 39.0661 17.9353V17.9353C38.5402 17.7367 37.8218 17.4654 36.5775 17.4654ZM30.3216 22.2115C25.9056 22.2115 22.4096 25.8185 22.4096 30.3747C22.4096 34.9309 25.9056 38.5378 30.3216 38.5378C34.7375 38.5378 38.2335 34.9309 38.2335 30.3747C38.2335 25.8185 34.7375 22.2115 30.3216 22.2115ZM40.2575 22.0216C40.2575 23.0701 39.4337 23.92 38.4175 23.92C37.4013 23.92 36.5775 23.0701 36.5775 22.0216C36.5775 20.9732 37.4013 20.1232 38.4175 20.1232C39.4337 20.1232 40.2575 20.9732 40.2575 22.0216Z" fill="white"/>
<path fill-rule="evenodd" clip-rule="evenodd" d="M0.881592 29.44C0.881592 13.1807 14.0623 0 30.3216 0V0C46.5808 0 59.7615 13.1807 59.7615 29.44V31.3093C59.7615 47.5686 46.5808 60.7493 30.3216 60.7493V60.7493C14.0623 60.7493 0.881592 47.5686 0.881592 31.3094V29.44ZM24.0656 14.6178H36.5775C38.2335 14.8076 39.3375 14.9975 40.2575 15.3772C41.3615 15.9467 42.0975 16.3264 43.0175 17.2756C43.9375 18.2248 44.4895 19.174 44.8575 20.1232C45.2255 21.0724 45.5935 22.2115 45.5935 23.92V36.8293C45.4095 38.5378 45.2255 39.6769 44.8575 40.6261C44.3055 41.7652 43.9375 42.5245 43.0175 43.4737C42.0975 44.4229 41.1775 44.9925 40.2575 45.3721C39.3375 45.7518 38.2335 46.1315 36.5775 46.1315H24.0656C22.4096 45.9417 21.3056 45.7518 20.3856 45.3721C19.2816 44.8026 18.5456 44.4229 17.6256 43.4737C16.7056 42.5245 16.1536 41.5753 15.7856 40.6261C15.4176 39.6769 15.0496 38.5378 15.0496 36.8293V23.92C15.2336 22.2115 15.4176 21.0724 15.7856 20.1232C16.3376 18.9842 16.7056 18.2248 17.6256 17.2756C18.5456 16.3264 19.4656 15.7569 20.3856 15.3772C21.3056 14.9975 22.4096 14.6178 24.0656 14.6178Z" fill="white"/>
</svg>
