<svg width="59" height="61" viewBox="0 0 59 61" fill="none" xmlns="http://www.w3.org/2000/svg">
<path fill-rule="evenodd" clip-rule="evenodd" d="M58.8815 29.4408C58.8815 13.1811 45.7004 0 29.4408 0C13.1811 0 0 13.1811 0 29.4408V31.3102C0 47.5699 13.1811 60.751 29.4408 60.751C45.7004 60.751 58.8815 47.5699 58.8815 31.3102V29.4408ZM36.6357 47.0839C35.2841 47.0347 33.9704 46.6143 32.7179 46.1038C28.0189 44.1884 24.3029 40.3581 23.6421 39.6508C23.5699 39.5735 23.5003 39.4953 23.4303 39.416C14.3407 29.117 14.8216 22.9828 14.8269 22.9147C14.8269 22.9143 14.8269 22.9139 14.8269 22.9135C14.2604 17.9219 17.2389 14.9882 18.2216 14.1667C18.4214 13.9998 18.8636 13.7 19.1015 13.5945C21.0637 12.7242 22.5314 14.8713 23.8523 16.5632L25.975 19.2821C27.5609 21.3972 26.0636 22.9308 25.6032 23.326C25.5216 23.3961 25.4371 23.4606 25.3545 23.5295C24.0088 24.6508 23.4345 26.4934 24.2123 28.0629C25.8062 31.2796 28.1636 33.8635 29.9751 35.5463C31.4596 36.9253 33.6875 36.8371 35.2548 35.553C35.5357 35.3229 35.8386 35.1118 36.1864 35.0077C37.0351 34.7538 37.6642 34.9673 38.0686 35.2248C38.4834 35.489 38.7643 35.9112 39.071 36.2957L42.8077 40.9805C44.3638 43.5227 41.2335 46.4583 38.2975 46.9725C37.697 47.0777 37.1329 47.1019 36.6357 47.0839Z" fill="white"/>
</svg>
