<svg width="60" height="61" viewBox="0 0 60 61" fill="none" xmlns="http://www.w3.org/2000/svg">
<path fill-rule="evenodd" clip-rule="evenodd" d="M0.761475 29.44C0.761475 13.1807 13.9422 0 30.2014 0C46.4607 0 59.6414 13.1807 59.6414 29.44V31.3094C59.6414 47.5686 46.4607 60.7493 30.2014 60.7493C13.9422 60.7493 0.761475 47.5686 0.761475 31.3093V29.44ZM31.4744 22.795C28.8377 23.9265 23.568 26.2685 15.6653 29.8209C14.382 30.3474 13.7098 30.8625 13.6486 31.3661C13.5452 32.2173 14.5783 32.5525 15.9851 33.0089C16.1765 33.071 16.3748 33.1353 16.5781 33.2035C17.9622 33.6677 19.8241 34.2108 20.792 34.2324C21.67 34.2519 22.6499 33.8785 23.7318 33.112C31.1156 27.9695 34.9271 25.3702 35.1664 25.3142C35.3352 25.2747 35.5691 25.225 35.7276 25.3703C35.8862 25.5157 35.8706 25.791 35.8538 25.8648C35.7514 26.315 31.6961 30.2049 29.5974 32.218C28.9431 32.8455 28.479 33.2907 28.3842 33.3924C28.1717 33.6201 27.9551 33.8355 27.7469 34.0426C26.461 35.3215 25.4967 36.2806 27.8003 37.8468C28.9073 38.5995 29.7931 39.2219 30.6768 39.8428C31.6419 40.5209 32.6046 41.1973 33.85 42.0396C34.1673 42.2542 34.4704 42.4771 34.7656 42.6942C35.8887 43.5204 36.8978 44.2626 38.1444 44.1442C38.8688 44.0755 39.617 43.3727 39.9971 41.2767C40.8951 36.3233 42.6604 25.5908 43.0683 21.1682C43.1041 20.7807 43.0591 20.2849 43.023 20.0672C42.9869 19.8495 42.9114 19.5393 42.6372 19.3097C42.3124 19.0378 41.811 18.9805 41.5867 18.9843C40.5671 19.0031 39.0028 19.5643 31.4744 22.795Z" fill="white"/>
</svg>
