<svg width="60" height="61" fill="none" xmlns="http://www.w3.org/2000/svg"><path d="M30.322 35.69c-2.76 0-5.152-2.278-5.152-5.315 0-2.848 2.208-5.316 5.152-5.316 2.76 0 5.152 2.278 5.152 5.316 0 2.847-2.392 5.315-5.152 5.315Z" fill="#fff"/><path fill-rule="evenodd" clip-rule="evenodd" d="M36.578 17.465H24.066c-1.472.19-2.208.38-2.76.57-.736.19-1.288.57-1.84 1.139-.437.45-.644.901-.893 1.446-.066.144-.135.294-.211.452-.029.088-.062.181-.097.28a6.886 6.886 0 0 0-.455 2.568v12.91c.184 1.518.368 2.277.552 2.847.184.76.552 1.329 1.104 1.898.436.451.873.664 1.401.921l.18.088c.173.085.35.162.53.23.526.199 1.244.47 2.489.47h12.512c1.471-.19 2.207-.38 2.76-.57.736-.19 1.288-.57 1.84-1.139.436-.45.643-.901.892-1.446.066-.143.135-.294.212-.452.028-.088.06-.18.096-.28a6.885 6.885 0 0 0 .456-2.568V23.92c-.184-1.519-.369-2.278-.553-2.848-.184-.759-.551-1.328-1.103-1.898-.437-.45-.874-.664-1.402-.92a65.678 65.678 0 0 1-.18-.09 5.953 5.953 0 0 0-.53-.229c-.526-.198-1.244-.47-2.489-.47Zm-6.256 4.747c-4.416 0-7.912 3.607-7.912 8.163s3.496 8.163 7.912 8.163c4.415 0 7.912-3.607 7.912-8.163s-3.497-8.163-7.912-8.163Zm9.936-.19c0 1.048-.824 1.898-1.84 1.898-1.017 0-1.84-.85-1.84-1.898 0-1.049.823-1.899 1.84-1.899 1.016 0 1.84.85 1.84 1.899Z" fill="#fff"/><path fill-rule="evenodd" clip-rule="evenodd" d="M.882 29.44C.882 13.18 14.062 0 30.322 0c16.259 0 29.44 13.18 29.44 29.44v1.87c0 16.259-13.181 29.44-29.44 29.44-16.26 0-29.44-13.181-29.44-29.44v-1.87Zm23.184-14.822h12.512c1.655.19 2.76.38 3.68.76 1.103.569 1.84.948 2.76 1.898a8.315 8.315 0 0 1 1.84 2.847c.367.95.736 2.088.736 3.797v12.91c-.184 1.708-.369 2.847-.736 3.796-.552 1.14-.92 1.899-1.84 2.848-.92.949-1.84 1.519-2.76 1.898-.92.38-2.025.76-3.68.76H24.066c-1.656-.19-2.76-.38-3.68-.76-1.104-.57-1.84-.95-2.76-1.898a8.315 8.315 0 0 1-1.84-2.848c-.368-.95-.736-2.088-.736-3.797V23.92c.184-1.709.368-2.848.736-3.797.552-1.139.92-1.898 1.84-2.847.92-.95 1.84-1.52 2.76-1.899.92-.38 2.024-.76 3.68-.76Z" fill="#fff"/></svg>