<svg width="59" height="61" fill="none" xmlns="http://www.w3.org/2000/svg"><path fill-rule="evenodd" clip-rule="evenodd" d="M58.882 29.44C58.882 13.182 45.7 0 29.44 0 13.18 0 0 13.181 0 29.44v1.87c0 16.26 13.181 29.441 29.44 29.441 16.26 0 29.442-13.181 29.442-29.44v-1.87ZM36.636 47.085c-1.352-.05-2.666-.47-3.918-.98-4.7-1.916-8.415-5.746-9.076-6.453a11.21 11.21 0 0 1-.212-.235c-9.09-10.299-8.608-16.433-8.603-16.501v-.002a9.867 9.867 0 0 1 3.395-8.746c.2-.167.642-.467.88-.572 1.962-.87 3.43 1.276 4.75 2.968l2.123 2.72c1.586 2.114.089 3.648-.372 4.043-.081.07-.166.135-.248.203-1.346 1.122-1.92 2.964-1.143 4.534 1.594 3.217 3.952 5.8 5.763 7.483 1.485 1.38 3.712 1.291 5.28.007.28-.23.584-.441.931-.545.85-.254 1.478-.04 1.883.217.414.264.695.686 1.002 1.07l3.737 4.685c1.556 2.543-1.575 5.478-4.51 5.992-.601.106-1.165.13-1.662.112Z" fill="#fff"/></svg>