<svg width="60" height="61" fill="none" xmlns="http://www.w3.org/2000/svg"><path fill-rule="evenodd" clip-rule="evenodd" d="M.761 29.44C.761 13.18 13.942 0 30.201 0c16.26 0 29.44 13.18 29.44 29.44v1.87c0 16.259-13.18 29.44-29.44 29.44-16.259 0-29.44-13.181-29.44-29.44v-1.87Zm30.713-6.645c-2.636 1.131-7.906 3.473-15.809 7.026-1.283.526-1.955 1.041-2.016 1.545-.104.851.93 1.187 2.336 1.643.192.062.39.126.593.194 1.384.465 3.246 1.008 4.214 1.03.878.019 1.858-.354 2.94-1.121 7.384-5.143 11.195-7.742 11.434-7.798.17-.04.403-.089.562.056.158.146.143.421.126.495-.103.45-4.158 4.34-6.257 6.353a73.953 73.953 0 0 0-1.213 1.174c-.212.228-.429.444-.637.65-1.286 1.28-2.25 2.239.053 3.805 1.107.752 1.993 1.375 2.877 1.996.965.678 1.928 1.354 3.173 2.197.317.214.62.437.916.654 1.123.826 2.132 1.569 3.378 1.45.725-.069 1.473-.771 1.853-2.867.898-4.954 2.663-15.686 3.071-20.109a5.084 5.084 0 0 0-.045-1.1c-.036-.219-.112-.529-.386-.758-.325-.272-.826-.33-1.05-.326-1.02.02-2.584.58-10.113 3.811Z" fill="#fff"/></svg>